<svg xmlns="http://www.w3.org/2000/svg" xmlns:xlink="http://www.w3.org/1999/xlink" id="Layer_1" viewBox="0 0 300 300"><defs><style>.cls-1{fill:url(#linear-gradient);}.cls-1,.cls-2,.cls-3{stroke-width:0px;}.cls-2{fill:url(#linear-gradient-2);}.cls-3{fill:url(#linear-gradient-3);}</style><linearGradient id="linear-gradient" x1="17.09" y1="291.97" x2="20.4" y2="282.04" gradientTransform="translate(-153.33 9205.32) scale(20.28 -31.39)" gradientUnits="userSpaceOnUse"><stop offset="0" stop-color="#32a3f5"></stop><stop offset="1" stop-color="#5386ec"></stop></linearGradient><linearGradient id="linear-gradient-2" x1="8.31" y1="290.61" x2="11.62" y2="280.69" gradientTransform="translate(-186.47 7543.55) scale(31.47 -25.88)" xlink:href="#linear-gradient"></linearGradient><linearGradient id="linear-gradient-3" x1="7.74" y1="287.66" x2="11.05" y2="277.74" gradientTransform="translate(-191.64 7791.26) scale(37.58 -26.65)" xlink:href="#linear-gradient"></linearGradient></defs><g id="Icon_-_SG_Logo"><g id="Group_376"><path id="Path_54" class="cls-1" d="m270.11,224.19c39.47-66.35,17.67-152.13-48.68-191.6-4.63-2.75-9.42-5.24-14.33-7.44.44.83.85,1.64,1.27,2.45,23.78,46.97,20.28,103.13-9.14,146.79-11.47,16.93-26.35,31.29-43.68,42.15.93.51,1.87.99,2.81,1.46,24.76,12.38,52.61,17.21,80.09,13.9,4.18-.52,8.37-1.22,12.46-2.12,6.52-1.42,12.94-3.3,19.19-5.63"></path><path id="Path_55" class="cls-2" d="m100.25,22.1C35,46.97-1.9,116.19,13.83,184.23c2.69-7.31,6.01-14.36,9.93-21.09,39.23-67.63,124.84-92.27,194.02-55.84.21-2.11.39-4.25.51-6.38,1.4-26.3-4.62-52.47-17.36-75.51-.38-.68-.77-1.37-1.16-2.05l-.58-1.01-.33-.56c-31.81-11.86-66.86-11.75-98.59.32"></path><path id="Path_56" class="cls-3" d="m265.28,231.69l-1.58.49c-38.52,11.77-80.21,7-115.08-13.15-37.91-21.88-63.93-59.7-70.82-102.93-29.33,17.64-51.14,45.46-61.29,78.14,3.34,10.77,7.99,21.1,13.83,30.75,39.32,65.01,123.36,86.72,189.25,48.89,18.17-10.5,33.77-24.91,45.67-42.2"></path></g></g></svg>